name ./resultDataOpenSim/trcMotMarkerGrf/sub06/grf-15-03.mot
datacolumns 19
datarows 22
range 0.52000000 0.60400000
endheader

                time	     ground_force_vx	     ground_force_vy	     ground_force_vz	     ground_force_px	     ground_force_py	     ground_force_pz	   l_ground_force_vx	   l_ground_force_vy	   l_ground_force_vz	   l_ground_force_px	   l_ground_force_py	   l_ground_force_pz	     ground_torque_x	     ground_torque_y	     ground_torque_z	   l_ground_torque_x	   l_ground_torque_y	   l_ground_torque_z	
          0.52000000	        126.47604789	        741.48959969	        -34.46651345	         -0.75317898	          0.00000000	          0.06437324	          0.00000000	          0.00000000	          0.00000000	          0.00000000	          0.00000000	          0.00000000	          0.00000000	         -0.30072612	          0.00000000	          0.00000000	          0.00000000	          0.00000000	
          0.52400000	        133.98948689	        755.20828526	        -34.40778572	         -0.75254662	          0.00000000	          0.06409443	          0.00000000	          0.00000000	          0.00000000	          0.00000000	          0.00000000	          0.00000000	          0.00000000	         -0.27109976	          0.00000000	          0.00000000	          0.00000000	          0.00000000	
          0.52800000	        141.86903971	        767.96805045	        -34.20684584	         -0.75188477	          0.00000000	          0.06385510	          0.00000000	          0.00000000	          0.00000000	          0.00000000	          0.00000000	          0.00000000	          0.00000000	         -0.22837224	          0.00000000	          0.00000000	          0.00000000	          0.00000000	
          0.53200000	        149.80805523	        779.75959480	        -33.98244598	         -0.75119348	          0.00000000	          0.06364438	          0.00000000	          0.00000000	          0.00000000	          0.00000000	          0.00000000	          0.00000000	          0.00000000	         -0.17927007	          0.00000000	          0.00000000	          0.00000000	          0.00000000	
          0.53600000	        157.57590340	        790.68091408	        -33.84499130	         -0.75053032	          0.00000000	          0.06343464	          0.00000000	          0.00000000	          0.00000000	          0.00000000	          0.00000000	          0.00000000	          0.00000000	         -0.13255575	          0.00000000	          0.00000000	          0.00000000	          0.00000000	
          0.54000000	        165.02569371	        800.68476304	        -33.86226222	         -0.74991518	          0.00000000	          0.06320833	          0.00000000	          0.00000000	          0.00000000	          0.00000000	          0.00000000	          0.00000000	          0.00000000	         -0.09727705	          0.00000000	          0.00000000	          0.00000000	          0.00000000	
          0.54400000	        172.07917188	        809.49400292	        -34.04991570	         -0.74929400	          0.00000000	          0.06296914	          0.00000000	          0.00000000	          0.00000000	          0.00000000	          0.00000000	          0.00000000	          0.00000000	         -0.08048536	          0.00000000	          0.00000000	          0.00000000	          0.00000000	
          0.54800000	        178.72369401	        816.76107272	        -34.37050753	         -0.74859983	          0.00000000	          0.06272840	          0.00000000	          0.00000000	          0.00000000	          0.00000000	          0.00000000	          0.00000000	          0.00000000	         -0.08495396	          0.00000000	          0.00000000	          0.00000000	          0.00000000	
          0.55200000	        185.02711856	        822.26182422	        -34.73544485	         -0.74782391	          0.00000000	          0.06248799	          0.00000000	          0.00000000	          0.00000000	          0.00000000	          0.00000000	          0.00000000	          0.00000000	         -0.10782047	          0.00000000	          0.00000000	          0.00000000	          0.00000000	
          0.55600000	        191.13270786	        825.92527275	        -35.01231132	         -0.74701635	          0.00000000	          0.06223849	          0.00000000	          0.00000000	          0.00000000	          0.00000000	          0.00000000	          0.00000000	          0.00000000	         -0.14093439	          0.00000000	          0.00000000	          0.00000000	          0.00000000	
          0.56000000	        197.20676033	        827.72197315	        -35.04888021	         -0.74622875	          0.00000000	          0.06196974	          0.00000000	          0.00000000	          0.00000000	          0.00000000	          0.00000000	          0.00000000	          0.00000000	         -0.17297570	          0.00000000	          0.00000000	          0.00000000	          0.00000000	
          0.56400000	        203.36847524	        827.57272725	        -34.71611994	         -0.74546792	          0.00000000	          0.06168070	          0.00000000	          0.00000000	          0.00000000	          0.00000000	          0.00000000	          0.00000000	          0.00000000	         -0.19259696	          0.00000000	          0.00000000	          0.00000000	          0.00000000	
          0.56800000	        209.65910214	        825.37880093	        -33.94194835	         -0.74470953	          0.00000000	          0.06137726	          0.00000000	          0.00000000	          0.00000000	          0.00000000	          0.00000000	          0.00000000	          0.00000000	         -0.19147647	          0.00000000	          0.00000000	          0.00000000	          0.00000000	
          0.57200000	        216.06487980	        821.11289811	        -32.71543213	         -0.74394716	          0.00000000	          0.06105944	          0.00000000	          0.00000000	          0.00000000	          0.00000000	          0.00000000	          0.00000000	          0.00000000	         -0.16641434	          0.00000000	          0.00000000	          0.00000000	          0.00000000	
          0.57600000	        222.54584511	        814.83904340	        -31.07842260	         -0.74321173	          0.00000000	          0.06071720	          0.00000000	          0.00000000	          0.00000000	          0.00000000	          0.00000000	          0.00000000	          0.00000000	         -0.12015267	          0.00000000	          0.00000000	          0.00000000	          0.00000000	
          0.58000000	        229.02559429	        806.63202131	        -29.12517438	         -0.74254113	          0.00000000	          0.06034131	          0.00000000	          0.00000000	          0.00000000	          0.00000000	          0.00000000	          0.00000000	          0.00000000	         -0.06104220	          0.00000000	          0.00000000	          0.00000000	          0.00000000	
          0.58400000	        235.36590601	        796.49699967	        -26.99797337	         -0.74194654	          0.00000000	          0.05993295	          0.00000000	          0.00000000	          0.00000000	          0.00000000	          0.00000000	          0.00000000	          0.00000000	         -0.00183251	          0.00000000	          0.00000000	          0.00000000	          0.00000000	
          0.58800000	        241.37701049	        784.37486712	        -24.85406772	         -0.74141207	          0.00000000	          0.05950241	          0.00000000	          0.00000000	          0.00000000	          0.00000000	          0.00000000	          0.00000000	          0.00000000	          0.04218783	          0.00000000	          0.00000000	          0.00000000	          0.00000000	
          0.59200000	        246.86317586	        770.18780484	        -22.81247867	         -0.74092060	          0.00000000	          0.05906078	          0.00000000	          0.00000000	          0.00000000	          0.00000000	          0.00000000	          0.00000000	          0.00000000	          0.05555433	          0.00000000	          0.00000000	          0.00000000	          0.00000000	
          0.59600000	        251.67145117	        753.81674033	        -20.92141150	         -0.74048093	          0.00000000	          0.05861472	          0.00000000	          0.00000000	          0.00000000	          0.00000000	          0.00000000	          0.00000000	          0.00000000	          0.02532950	          0.00000000	          0.00000000	          0.00000000	          0.00000000	
          0.60000000	        255.70549342	        735.03541376	        -19.16911581	         -0.74010124	          0.00000000	          0.05817536	          0.00000000	          0.00000000	          0.00000000	          0.00000000	          0.00000000	          0.00000000	          0.00000000	         -0.05614639	          0.00000000	          0.00000000	          0.00000000	          0.00000000	
          0.60400000	        258.86861853	        713.57359149	        -17.51330973	         -0.73973844	          0.00000000	          0.05776468	          0.00000000	          0.00000000	          0.00000000	          0.00000000	          0.00000000	          0.00000000	          0.00000000	         -0.18900263	          0.00000000	          0.00000000	          0.00000000	          0.00000000	
